<svg id="Capa_1" data-name="Capa 1" xmlns="http://www.w3.org/2000/svg" viewBox="0 0 182.46 104.92"><defs><style>.cls-1{fill:#fffdff;}.cls-2{fill:#fffcfd;}.cls-3{fill:#ffcb00;}.cls-4{fill:#eeedee;}</style></defs><title>logo</title><path class="cls-1" d="M87,10.94h9.87a.21.21,0,0,1,.22.21V42.84a.21.21,0,0,0,.38.13L110.21,26.3a.23.23,0,0,1,.17-.08h11.11a.21.21,0,0,1,.17.34l-13,16.79a.23.23,0,0,0,0,.24l14.44,24.63a.21.21,0,0,1-.18.32H110.4a.2.2,0,0,1-.18-.11l-8.77-16.65a.2.2,0,0,0-.33-.05l-4,4a.2.2,0,0,0-.06.15V68.33a.21.21,0,0,1-.22.21H87a.21.21,0,0,1-.22-.21V11.15A.21.21,0,0,1,87,10.94Z"/><path class="cls-2" d="M42.37,93.28l.17-68.81a1,1,0,0,1,1-1l21.2.19c22.84,0,22.84,42.49,0,42.49H53l-.32,27.08a1,1,0,0,1-1,1H43.33A1,1,0,0,1,42.37,93.28ZM53,56.06,64.71,56c10.33.05,10.33-22.74,0-22.74H53Z"/><path class="cls-3" d="M0,62.74l5.93-7.52c5.37,5.32,12.69,5.18,15.56,5,11.2-.56,11.42-14.17-1-13.94-1.63,0-12.59.33-16.63-6.83-1.31-2.35-6-11.31.91-19.88,1.81-2.25,3.65-4.37,6.5-5.66A24.52,24.52,0,0,1,21.52,12a24.38,24.38,0,0,1,5.65.66,26.89,26.89,0,0,1,5.48,2A31.87,31.87,0,0,1,38,17.91l-6.24,8.14A23.57,23.57,0,0,0,26,22.75c-6.42-2.72-12.89.42-13.48,4.57-1,7,3.49,8.57,17,10.1C50.1,39.74,42.38,90.26,0,62.74Z"/><path class="cls-4" d="M64.43,85.52V78.63H62.69V77l1.83-.12.24-3.49h1.66v3.49h3.19v1.72H66.42v6.93c0,1.52.47,2.4,1.82,2.4a3.67,3.67,0,0,0,1.34-.33L70,89.22a6.63,6.63,0,0,1-2.18.46C65.28,89.68,64.43,88,64.43,85.52Z"/><path class="cls-4" d="M71,83.16c0-4.06,2.58-6.56,5.28-6.56,3,0,4.69,2.29,4.69,5.85a6.83,6.83,0,0,1-.09,1.2H73c.14,2.64,1.66,4.35,3.9,4.35a4.92,4.92,0,0,0,2.92-1l.72,1.38a6.67,6.67,0,0,1-3.88,1.29C73.54,89.68,71,87.25,71,83.16Zm8.22-1c0-2.5-1.06-3.86-2.9-3.86-1.65,0-3.13,1.41-3.37,3.86Z"/><path class="cls-4" d="M83,83.16c0-4.16,2.65-6.56,5.65-6.56a4.81,4.81,0,0,1,3.44,1.47l-1,1.39a3.33,3.33,0,0,0-2.33-1.1c-2.13,0-3.69,1.94-3.69,4.8s1.48,4.77,3.64,4.77a4.1,4.1,0,0,0,2.75-1.25l.87,1.42a5.54,5.54,0,0,1-3.8,1.58C85.41,89.68,83,87.29,83,83.16Z"/><path class="cls-4" d="M94.92,76.91h1.64l.17,1.8h.07a5.51,5.51,0,0,1,3.94-2.11c2.47,0,3.58,1.7,3.58,4.88v7.89h-2V81.75c0-2.32-.66-3.31-2.22-3.31-1.2,0-2,.65-3.21,1.91v9h-2Z"/><path class="cls-4" d="M107.27,83.16c0-4.16,2.56-6.56,5.44-6.56s5.44,2.4,5.44,6.56-2.56,6.52-5.44,6.52S107.27,87.29,107.27,83.16Zm8.83,0c0-2.86-1.37-4.8-3.39-4.8s-3.39,1.94-3.39,4.8,1.37,4.77,3.39,4.77S116.1,86,116.1,83.16Z"/><path class="cls-4" d="M121.14,86.87V71.11h2V87c0,.65.26.91.55.91a1.43,1.43,0,0,0,.44-.06l.27,1.62a3.2,3.2,0,0,1-1.15.19C121.75,89.68,121.14,88.67,121.14,86.87Z"/><path class="cls-4" d="M126.43,83.16c0-4.16,2.56-6.56,5.44-6.56s5.45,2.4,5.45,6.56-2.57,6.52-5.45,6.52S126.43,87.29,126.43,83.16Zm8.83,0c0-2.86-1.37-4.8-3.39-4.8s-3.39,1.94-3.39,4.8,1.37,4.77,3.39,4.77S135.26,86,135.26,83.16Z"/><path class="cls-4" d="M139.51,91.77A3.53,3.53,0,0,1,141.23,89v-.1a2.35,2.35,0,0,1-1-2,3.05,3.05,0,0,1,1.29-2.32v-.1A4.47,4.47,0,0,1,140,81a4.29,4.29,0,0,1,4.41-4.44,4.59,4.59,0,0,1,1.66.31h4.1v1.63H147.7a3.67,3.67,0,0,1,1,2.56,4.13,4.13,0,0,1-4.3,4.32,4,4,0,0,1-1.75-.42,1.86,1.86,0,0,0-.75,1.47c0,.79.49,1.35,2.06,1.35h2.29c2.73,0,4.1.91,4.1,3,0,2.32-2.31,4.31-5.94,4.31C141.49,95.11,139.51,93.91,139.51,91.77Zm8.85-.65c0-1.16-.82-1.55-2.36-1.55h-2a6.09,6.09,0,0,1-1.53-.19,2.64,2.64,0,0,0-1.2,2.09c0,1.34,1.28,2.19,3.41,2.19S148.36,92.42,148.36,91.12ZM146.86,81c0-1.81-1.11-2.91-2.5-2.91s-2.5,1.09-2.5,2.91a2.54,2.54,0,1,0,5,0Z"/><path class="cls-4" d="M152.21,73.62l3.42-4.26,1.4,1.4-3.8,3.92Zm.37,3.29h2V89.37h-2Z"/><path class="cls-4" d="M157.8,86.14c0-2.72,2.21-4.07,7.21-4.65,0-1.6-.5-3.15-2.42-3.15a6.22,6.22,0,0,0-3.51,1.34l-.77-1.45a8.32,8.32,0,0,1,4.61-1.63c2.87,0,4.08,2,4.08,5.13v7.64h-1.64l-.17-1.49h-.07a6,6,0,0,1-3.88,1.8A3.28,3.28,0,0,1,157.8,86.14Zm7.21.19V82.87c-3.93.5-5.27,1.53-5.27,3.12a1.84,1.84,0,0,0,2.06,2A4.7,4.7,0,0,0,165,86.33Z"/></svg>