<svg id="Capa_1" data-name="Capa 1" xmlns="http://www.w3.org/2000/svg" viewBox="0 0 213.31 100.75"><defs><style>.cls-1{fill:#fffdff;}.cls-2{fill:#fffcfd;}.cls-3{fill:#ffcb00;}.cls-4{fill:#eeedee;}</style></defs><title>SpkWeb</title><path class="cls-1" d="M120.29,3.58h9.88a.22.22,0,0,1,.21.21V35.48a.21.21,0,0,0,.38.13L143.53,19a.22.22,0,0,1,.16-.09H154.8a.22.22,0,0,1,.17.35L141.94,36a.21.21,0,0,0,0,.24l14.43,24.64a.21.21,0,0,1-.18.32H143.72a.22.22,0,0,1-.19-.12l-8.76-16.65a.22.22,0,0,0-.34-.05l-4,4a.2.2,0,0,0-.06.15V61a.22.22,0,0,1-.21.21h-9.88a.21.21,0,0,1-.21-.21V3.79A.21.21,0,0,1,120.29,3.58Z"/><path class="cls-2" d="M75.69,85.93l.17-68.82a1,1,0,0,1,1-.95L98,16.35c22.84,0,22.84,42.49,0,42.49H86.26l-.32,27.07a1,1,0,0,1-1,1H76.64A.94.94,0,0,1,75.69,85.93ZM86.26,48.7,98,48.65c10.33.05,10.33-22.73,0-22.73H86.26Z"/><path class="cls-3" d="M33.31,55.38l5.93-7.52c5.37,5.32,12.7,5.19,15.56,5,11.2-.56,11.42-14.16-1-13.94-1.63,0-12.59.34-16.62-6.83-1.32-2.34-6-11.31.91-19.88,1.81-2.25,3.64-4.36,6.49-5.66A24.55,24.55,0,0,1,54.83,4.64a23.79,23.79,0,0,1,5.65.67,26.85,26.85,0,0,1,5.48,2,31.54,31.54,0,0,1,5.32,3.29L65.05,18.7a23.48,23.48,0,0,0-5.71-3.31c-6.43-2.72-12.9.42-13.48,4.58-1,7,3.48,8.56,17,10.09C83.41,32.38,75.69,82.91,33.31,55.38Z"/><path class="cls-4" d="M97.75,78.17v-6.9H96V69.68l1.84-.12.24-3.5h1.66v3.5h3.18v1.71H99.74V78.2c0,1.53.46,2.41,1.81,2.41a3.68,3.68,0,0,0,1.34-.34l.38,1.59a6.58,6.58,0,0,1-2.18.47C98.59,82.33,97.75,80.65,97.75,78.17Z"/><path class="cls-4" d="M104.36,75.8c0-4,2.57-6.55,5.28-6.55,3,0,4.68,2.28,4.68,5.85a6.71,6.71,0,0,1-.09,1.19h-7.91c.14,2.64,1.67,4.36,3.9,4.36a5,5,0,0,0,2.93-1l.71,1.38a6.6,6.6,0,0,1-3.88,1.3C106.85,82.33,104.36,79.9,104.36,75.8Zm8.21-1c0-2.49-1.06-3.85-2.9-3.85-1.65,0-3.12,1.41-3.37,3.85Z"/><path class="cls-4" d="M116.34,75.8c0-4.16,2.65-6.55,5.65-6.55a4.78,4.78,0,0,1,3.44,1.46l-1,1.4A3.29,3.29,0,0,0,122.08,71c-2.12,0-3.68,2-3.68,4.8s1.47,4.77,3.63,4.77a4.13,4.13,0,0,0,2.76-1.24l.86,1.41a5.55,5.55,0,0,1-3.8,1.59C118.73,82.33,116.34,79.93,116.34,75.8Z"/><path class="cls-4" d="M128.23,69.56h1.65l.16,1.79h.07a5.5,5.5,0,0,1,3.94-2.1c2.48,0,3.59,1.69,3.59,4.87V82h-2V74.39c0-2.32-.66-3.31-2.22-3.31-1.2,0-2,.65-3.21,1.91v9h-2Z"/><path class="cls-4" d="M140.58,75.8c0-4.16,2.56-6.55,5.44-6.55s5.45,2.39,5.45,6.55-2.57,6.53-5.45,6.53S140.58,79.93,140.58,75.8Zm8.83,0C149.41,73,148,71,146,71s-3.39,2-3.39,4.8S144,80.57,146,80.57,149.41,78.66,149.41,75.8Z"/><path class="cls-4" d="M154.45,79.52V63.75h2V79.67c0,.64.27.9.56.9a1.63,1.63,0,0,0,.43,0l.27,1.61a3,3,0,0,1-1.14.2C155.07,82.33,154.45,81.32,154.45,79.52Z"/><path class="cls-4" d="M159.74,75.8c0-4.16,2.57-6.55,5.45-6.55s5.44,2.39,5.44,6.55-2.56,6.53-5.44,6.53S159.74,79.93,159.74,75.8Zm8.84,0c0-2.85-1.37-4.8-3.39-4.8s-3.39,2-3.39,4.8,1.37,4.77,3.39,4.77S168.58,78.66,168.58,75.8Z"/><path class="cls-4" d="M172.82,84.41a3.53,3.53,0,0,1,1.73-2.82v-.1a2.33,2.33,0,0,1-1.06-2,3,3,0,0,1,1.3-2.31V77a4.41,4.41,0,0,1-1.52-3.34,4.28,4.28,0,0,1,4.4-4.44,4.39,4.39,0,0,1,1.66.31h4.1v1.62H181a3.73,3.73,0,0,1,.95,2.56,4.13,4.13,0,0,1-4.3,4.32,3.89,3.89,0,0,1-1.75-.42,1.87,1.87,0,0,0-.75,1.47c0,.8.49,1.36,2.06,1.36h2.29c2.73,0,4.1.91,4.1,3,0,2.32-2.31,4.31-5.94,4.31C174.81,87.75,172.82,86.56,172.82,84.41Zm8.86-.65c0-1.15-.83-1.55-2.37-1.55h-2a6.47,6.47,0,0,1-1.52-.18,2.62,2.62,0,0,0-1.2,2.09c0,1.34,1.27,2.18,3.4,2.18S181.68,85.06,181.68,83.76Zm-1.51-10.07c0-1.81-1.11-2.91-2.5-2.91s-2.49,1.08-2.49,2.91a2.53,2.53,0,1,0,5,0Z"/><path class="cls-4" d="M185.52,66.27,189,62l1.39,1.4-3.79,3.92Zm.37,3.29h2V82h-2Z"/><path class="cls-4" d="M191.11,78.78c0-2.71,2.21-4.07,7.21-4.65,0-1.6-.5-3.14-2.42-3.14a6.25,6.25,0,0,0-3.5,1.33l-.78-1.44a8.24,8.24,0,0,1,4.61-1.63c2.87,0,4.08,2,4.08,5.12V82h-1.64l-.17-1.49h-.06a6.07,6.07,0,0,1-3.89,1.8A3.29,3.29,0,0,1,191.11,78.78Zm7.21.2V75.52c-3.93.5-5.26,1.52-5.26,3.11a1.85,1.85,0,0,0,2.06,2A4.72,4.72,0,0,0,198.32,79Z"/></svg>