<svg id="Capa_1" data-name="Capa 1" xmlns="http://www.w3.org/2000/svg" xmlns:xlink="http://www.w3.org/1999/xlink" viewBox="0 0 1920 1080"><defs><style>.cls-1,.cls-20{fill:none;}.cls-2{clip-path:url(#clip-path);}.cls-3{clip-path:url(#clip-path-2);}.cls-17,.cls-20,.cls-29,.cls-4,.cls-6{stroke-miterlimit:10;}.cls-4{opacity:0.58;fill:url(#Degradado_sin_nombre_10);stroke:url(#Degradado_sin_nombre_2);}.cls-5{fill:#131313;}.cls-30,.cls-6{fill:#ffc310;}.cls-17,.cls-20,.cls-29,.cls-6{stroke:#585858;stroke-width:2px;}.cls-7{font-size:26px;font-family:Arial-BoldMT, Arial;}.cls-21,.cls-7{font-weight:700;}.cls-8{opacity:0.24;}.cls-9{font-size:50px;}.cls-17,.cls-31,.cls-33,.cls-9{fill:#fff;}.cls-22,.cls-9{font-family:OpenSans-SemiBold, OpenSans SemiBold;font-weight:600;}.cls-10{letter-spacing:0.04em;}.cls-11{letter-spacing:-0.06em;}.cls-12{fill:#fffdff;}.cls-13{fill:#fffcfd;}.cls-14{fill:#ffcb00;}.cls-15{fill:#eeedee;}.cls-16{fill:#ffad32;}.cls-18{fill:#585858;}.cls-19{fill:#ccc;}.cls-21,.cls-30,.cls-31{font-size:24px;}.cls-21{font-family:OpenSans-Bold, Open Sans;}.cls-23{letter-spacing:-0.07em;}.cls-24{letter-spacing:-0.01em;}.cls-25{letter-spacing:0em;}.cls-26{letter-spacing:-0.01em;}.cls-27{letter-spacing:0em;}.cls-28{letter-spacing:-0.01em;}.cls-30,.cls-31{font-family:ArialMT, Arial;}.cls-32{letter-spacing:-0.07em;}</style><clipPath id="clip-path"><rect class="cls-1" x="208.5" y="1481.5" width="1569" height="786"/></clipPath><clipPath id="clip-path-2"><rect class="cls-1" x="-1" y="121" width="1921" height="959"/></clipPath><linearGradient id="Degradado_sin_nombre_10" x1="1" y1="600.5" x2="1920" y2="600.5" gradientUnits="userSpaceOnUse"><stop offset="0" stop-color="#9d5c2e"/><stop offset="0.32" stop-color="#5f3a21" stop-opacity="0"/><stop offset="1"/></linearGradient><linearGradient id="Degradado_sin_nombre_2" x1="0.5" y1="600.5" x2="1920.5" y2="600.5" gradientUnits="userSpaceOnUse"><stop offset="0" stop-color="#fff"/><stop offset="1"/></linearGradient></defs><title>SpkWeb</title><g class="cls-2"><image width="1920" height="2400" transform="translate(209 1038) scale(0.82 0.72)" xlink:href="../../../../../Spk%20web-final/Fac_Electronica/daniel-korpai-UIiWnE58U_o-unsplash.jpg"/></g><g class="cls-3"><image width="1920" height="1177" transform="translate(1 52)" xlink:href="../../../../../Spk%20web-final/Slider/1.jpg"/></g><rect class="cls-4" x="1" y="121" width="1919" height="959"/><rect class="cls-5" x="-0.5" y="-0.5" width="1920" height="122"/><rect class="cls-6" x="1606" y="21" width="240" height="72" rx="3"/><text class="cls-7" transform="translate(1625.61 64.16)">CONTÁCTENOS</text><rect class="cls-8" x="1030" y="407" width="749" height="59"/><text class="cls-9" transform="translate(1039.68 455.37)">TU SOF<tspan class="cls-10" x="151.25" y="0">T</tspan><tspan class="cls-11" x="178.1" y="0">W</tspan><tspan x="217.55" y="0">ARE ESPECIALIZADO</tspan></text><path class="cls-12" d="M218,29h9.87a.21.21,0,0,1,.22.21V60.9a.21.21,0,0,0,.38.13l12.76-16.66a.21.21,0,0,1,.17-.09h11.11a.21.21,0,0,1,.17.34l-13,16.79a.23.23,0,0,0,0,.24l14.44,24.64a.21.21,0,0,1-.18.32H241.4a.21.21,0,0,1-.18-.12l-8.77-16.65a.21.21,0,0,0-.33,0l-4,4a.2.2,0,0,0-.06.15V86.39a.22.22,0,0,1-.22.22H218a.22.22,0,0,1-.22-.22V29.21A.21.21,0,0,1,218,29Z"/><path class="cls-13" d="M173.37,111.35l.17-68.82a1,1,0,0,1,1-1l21.2.19c22.84,0,22.84,42.49,0,42.49H184l-.32,27.08a1,1,0,0,1-1,1h-8.31A1,1,0,0,1,173.37,111.35ZM184,74.12l11.76-.05c10.33.05,10.33-22.73,0-22.73H184Z"/><path class="cls-14" d="M131,80.8l5.93-7.52c5.37,5.32,12.69,5.18,15.56,5,11.2-.56,11.42-14.16-1-13.94-1.63,0-12.59.34-16.63-6.83-1.31-2.34-6-11.31.91-19.88,1.81-2.25,3.65-4.36,6.5-5.66a26.65,26.65,0,0,1,15.91-1.29,27.5,27.5,0,0,1,5.48,2A31.3,31.3,0,0,1,169,36l-6.24,8.14A23.3,23.3,0,0,0,157,40.81c-6.42-2.72-12.89.42-13.48,4.57-1,7,3.49,8.57,17,10.1C181.1,57.8,173.38,108.33,131,80.8Z"/><path class="cls-15" d="M195.43,103.58V96.69h-1.74V95.1l1.83-.13.24-3.49h1.66V95h3.19v1.72h-3.19v6.93c0,1.52.47,2.41,1.82,2.41a3.68,3.68,0,0,0,1.34-.34l.38,1.59a6.63,6.63,0,0,1-2.18.46C196.28,107.74,195.43,106.06,195.43,103.58Z"/><path class="cls-15" d="M202,101.22c0-4,2.58-6.55,5.28-6.55,3,0,4.69,2.28,4.69,5.85a6.71,6.71,0,0,1-.09,1.19H204c.14,2.64,1.66,4.35,3.9,4.35a4.92,4.92,0,0,0,2.92-1l.72,1.38a6.6,6.6,0,0,1-3.88,1.29C204.54,107.74,202,105.32,202,101.22Zm8.22-1c0-2.5-1.06-3.85-2.9-3.85-1.65,0-3.13,1.4-3.37,3.85Z"/><path class="cls-15" d="M214,101.22c0-4.16,2.65-6.55,5.65-6.55a4.8,4.8,0,0,1,3.44,1.46l-1,1.39a3.33,3.33,0,0,0-2.33-1.1c-2.13,0-3.69,2-3.69,4.8s1.48,4.77,3.64,4.77a4.09,4.09,0,0,0,2.75-1.24l.87,1.41a5.54,5.54,0,0,1-3.8,1.58C216.41,107.74,214,105.35,214,101.22Z"/><path class="cls-15" d="M225.92,95h1.64l.17,1.8h.07a5.5,5.5,0,0,1,3.94-2.1c2.47,0,3.58,1.69,3.58,4.87v7.9h-2V99.81c0-2.32-.66-3.31-2.22-3.31-1.2,0-2,.65-3.21,1.91v9h-2Z"/><path class="cls-15" d="M238.27,101.22c0-4.16,2.56-6.55,5.44-6.55s5.44,2.39,5.44,6.55-2.56,6.52-5.44,6.52S238.27,105.35,238.27,101.22Zm8.83,0c0-2.85-1.37-4.8-3.39-4.8s-3.39,2-3.39,4.8,1.37,4.77,3.39,4.77S247.1,104.08,247.1,101.22Z"/><path class="cls-15" d="M252.14,104.93V89.17h2v15.92c0,.64.26.9.55.9a1.7,1.7,0,0,0,.44,0l.27,1.61a3,3,0,0,1-1.15.19C252.75,107.74,252.14,106.74,252.14,104.93Z"/><path class="cls-15" d="M257.43,101.22c0-4.16,2.56-6.55,5.44-6.55s5.45,2.39,5.45,6.55-2.57,6.52-5.45,6.52S257.43,105.35,257.43,101.22Zm8.83,0c0-2.85-1.37-4.8-3.39-4.8s-3.39,2-3.39,4.8,1.37,4.77,3.39,4.77S266.26,104.08,266.26,101.22Z"/><path class="cls-15" d="M270.51,109.83a3.53,3.53,0,0,1,1.72-2.82v-.1a2.33,2.33,0,0,1-1.05-2,3,3,0,0,1,1.29-2.31v-.11A4.44,4.44,0,0,1,271,99.11a4.29,4.29,0,0,1,4.41-4.44A4.6,4.6,0,0,1,277,95h4.1V96.6H278.7a3.67,3.67,0,0,1,1,2.56,4.13,4.13,0,0,1-4.3,4.32,4,4,0,0,1-1.75-.42,1.87,1.87,0,0,0-.75,1.47c0,.79.49,1.36,2.06,1.36h2.29c2.73,0,4.1.91,4.1,3,0,2.32-2.31,4.31-5.94,4.31C272.49,113.17,270.51,112,270.51,109.83Zm8.85-.65c0-1.15-.82-1.55-2.36-1.55h-2a6.09,6.09,0,0,1-1.53-.19,2.65,2.65,0,0,0-1.2,2.09c0,1.34,1.28,2.19,3.41,2.19S279.36,110.48,279.36,109.18Zm-1.5-10.07c0-1.82-1.11-2.91-2.5-2.91s-2.5,1.08-2.5,2.91a2.54,2.54,0,1,0,5,0Z"/><path class="cls-15" d="M283.21,91.69l3.42-4.27,1.4,1.4-3.8,3.92Zm.37,3.28h2v12.47h-2Z"/><path class="cls-15" d="M288.8,104.2c0-2.71,2.21-4.07,7.21-4.65,0-1.6-.5-3.15-2.42-3.15a6.29,6.29,0,0,0-3.51,1.34l-.77-1.45a8.32,8.32,0,0,1,4.61-1.62c2.87,0,4.08,2,4.08,5.12v7.65h-1.64l-.17-1.49h-.07a6.06,6.06,0,0,1-3.88,1.79A3.28,3.28,0,0,1,288.8,104.2Zm7.21.2v-3.46c-3.93.5-5.27,1.52-5.27,3.11a1.85,1.85,0,0,0,2.06,2A4.74,4.74,0,0,0,296,104.4Z"/><rect class="cls-16" x="1326" y="927" width="562" height="126" rx="18"/><ellipse class="cls-17" cx="1385" cy="990" rx="33" ry="35"/><circle class="cls-18" cx="1395.5" cy="979.5" r="4.5"/><circle class="cls-19" cx="1395.5" cy="979.5" r="2.5"/><circle class="cls-18" cx="1374.5" cy="979.5" r="4.5"/><circle class="cls-19" cx="1374.5" cy="979.5" r="2.5"/><path class="cls-20" d="M1367,1006s16,16,36,0"/><text class="cls-21" transform="translate(1454.93 970.71) scale(0.95 1)">VAMOS A CHATEAR!<tspan class="cls-22"><tspan class="cls-23" x="0" y="28.8">T</tspan><tspan x="10.22" y="28.8">e </tspan><tspan class="cls-24" x="27.34" y="28.8">r</tspan><tspan x="34.94" y="28.8">esponde</tspan><tspan class="cls-24" x="122.18" y="28.8">r</tspan><tspan x="129.79" y="28.8">emos tan p</tspan><tspan class="cls-24" x="241.17" y="28.8">r</tspan><tspan x="248.78" y="28.8">o</tspan><tspan class="cls-25" x="261.96" y="28.8">n</tspan><tspan class="cls-26" x="275.18" y="28.8">t</tspan><tspan class="cls-27" x="282.98" y="28.8">o </tspan><tspan class="cls-28" x="301.24" y="28.8">c</tspan><tspan x="311.85" y="28.8">omo</tspan><tspan x="0" y="57.6">podamos</tspan></tspan></text><rect class="cls-29" x="438" y="26" width="172" height="62"/><rect class="cls-29" x="807" y="26.5" width="199" height="62"/><rect class="cls-29" x="610" y="26.5" width="197" height="62"/><rect class="cls-29" x="1006" y="26.5" width="246" height="62"/><rect class="cls-29" x="1252" y="26.5" width="276" height="62"/><text class="cls-30" transform="translate(487.39 64.4)">INICIO</text><text class="cls-31" transform="translate(629.93 64.9)">SOLUCIONES</text><text class="cls-31" transform="translate(847.91 64.9)">CLIENTES</text><text class="cls-31" transform="translate(1029.57 63.9)">CONSU<tspan class="cls-32" x="86.67" y="0">LT</tspan><tspan x="111.12" y="0">AS CPE</tspan></text><text class="cls-31" transform="translate(1288.13 63.9)">QUIENES SOMOS</text><path class="cls-33" d="M1552.42,65.52c0-2.48,0-5,0-7.45,0-.42-.11-.54-.53-.52-.73,0-1.46,0-2.18,0-.33,0-.44-.08-.44-.42,0-1.58,0-3.17,0-4.75,0-.4.16-.46.5-.45.73,0,1.45,0,2.18,0,.36,0,.47-.1.47-.47,0-1.15,0-2.31,0-3.46a7,7,0,0,1,1-3.54,6,6,0,0,1,5.36-2.81c1.58,0,3.17,0,4.75,0,.38,0,.46.13.46.48,0,1.5,0,3,0,4.49,0,.39-.09.52-.5.51-1,0-1.92,0-2.88,0s-1.57.47-1.59,1.55c0,.92,0,1.84,0,2.76,0,.4.11.51.51.51,1.28,0,2.56,0,3.85,0,.53,0,.71.11.64.66q-.29,2.27-.48,4.53c0,.36-.15.45-.5.44-1.15,0-2.31,0-3.46,0-.47,0-.56.15-.56.58,0,4.88,0,9.76,0,14.63,0,.58-.15.72-.71.7-1.73,0-3.46,0-5.2,0-.53,0-.72-.08-.71-.68C1552.44,70.35,1552.42,67.93,1552.42,65.52Z"/></svg>